<?xml version="1.0" encoding="utf-8"?>
<!-- Generator: Adobe Illustrator 27.9.0, SVG Export Plug-In . SVG Version: 6.00 Build 0)  -->
<svg version="1.1" id="Layer_1" xmlns="http://www.w3.org/2000/svg" xmlns:xlink="http://www.w3.org/1999/xlink" x="0px" y="0px"
	 viewBox="0 0 31.9 32" style="enable-background:new 0 0 31.9 32;" xml:space="preserve">
<style type="text/css">
	.st0{fill:#FFFFFF;}
	.st1{fill-rule:evenodd;clip-rule:evenodd;}
	.st2{fill:#FF0000;}
</style>
<path class="st0" d="M26.9,31.9H5c-2.8,0-5-2.2-5-5V5.1c0-2.8,2.2-5,5-5h21.9c2.8,0,5,2.2,5,5v21.9C31.9,29.7,29.6,31.9,26.9,31.9z"
	/>
<path class="st1" d="M25.8,20.4c0.5-1.2,0.8-2.6,0.8-4c0-1.7-0.4-3.2-1.1-4.6l-0.4,0.4c0.6,1.3,0.9,2.7,0.9,4.2
	c0,1.5-0.3,2.8-0.9,4.1c0.1-0.1,0.3-0.1,0.4-0.1H25.8z M6.7,16.4c0-5.3,4.3-9.7,9.7-9.7c1.5,0,2.9,0.3,4.2,1L21,7.3
	c-1.4-0.7-3-1.1-4.6-1.1c-5.7,0-10.2,4.6-10.2,10.2c0,1.4,0.3,2.8,0.8,4.1c0.1,0,0.2,0,0.3-0.1c0.1,0,0.2,0,0.3-0.1
	C7,19.1,6.7,17.8,6.7,16.4z M16.3,12.3c-2.2,0.1-4,1.9-4,4.1c0,1.9,1.3,3.5,3,4h0.4c0.1,0,0.3,0,0.4,0.1c0.1,0,0.2-0.1,0.2-0.1v-0.1
	c0-0.4,0.3-0.7,0.6-0.8l1.4-0.4c0.3-0.1,0.5,0,0.8,0.1c0.1,0.1,0.2,0.2,0.2,0.2c0.1-0.1,0.1-0.1,0.2-0.2c0.1-0.2,0.2-0.4,0.4-0.6
	c0,0,0.1-0.1,0.1-0.1c0.4-0.6,0.6-1.3,0.6-2.1L18.4,17c-0.3,0.9-1.1,1.5-2.1,1.5c-1.2,0-2.1-1-2.1-2.1c0-1,0.6-1.8,1.5-2.1
	L16.3,12.3z M23.3,20.4c0.7-1.2,1.1-2.5,1.1-4c0-1.4-0.4-2.8-1.1-4l-1.1,0l-0.7,0.7c0.6,0.9,1,2.1,1,3.3c0,0.8-0.1,1.5-0.4,2.2
	c0,0,0,0,0,0c0.3,0.3,0.5,0.7,0.5,1.2c0,0.2,0,0.4-0.1,0.6H23.3z M20.3,9.5c-1.2-0.7-2.5-1.1-4-1.1c-4.4,0-8,3.6-8,8
	c0,1.5,0.4,2.9,1.1,4.1c0.4,0.1,0.7,0.3,0.9,0.6c0.1-0.4,0.4-0.7,0.8-0.7h0.5c-0.9-1.1-1.5-2.5-1.5-4c0-3.4,2.7-6.1,6.1-6.1
	c1.2,0,2.3,0.4,3.3,1l0.7-0.7L20.3,9.5z M23.3,6.4l-1.9,1.9l0,2.7l-3.5,3.6l-0.6-2.2l-0.9,4l4-0.9l-2.2-0.6l3.6-3.5l2.7,0l1.9-1.9
	l-2.4-0.6L23.3,6.4z"/>
<path class="st2" d="M29.9,23.9v-0.3l-0.8,0.1c-0.4,0.1-0.7,0.3-0.7,0.6c0,0.2,0.1,0.3,0.2,0.4c0.1,0.1,0.3,0.2,0.4,0.2
	c0.3,0,0.5-0.1,0.6-0.3C29.8,24.4,29.9,24.2,29.9,23.9 M27,21.3l-1.7,4.5h-1.6l-1.6-4.5h1.5l0.8,2.8c0.1,0.3,0.1,0.6,0.2,0.8h0
	c0-0.2,0.1-0.5,0.2-0.8l0.8-2.8H27z M21.6,25.7h-1.4v-4.5h1.4V25.7z M20.9,20.5c-0.2,0-0.4-0.1-0.6-0.2c-0.1-0.1-0.2-0.3-0.2-0.5
	c0-0.2,0.1-0.4,0.2-0.5c0.2-0.1,0.3-0.2,0.6-0.2c0.2,0,0.4,0.1,0.6,0.2c0.2,0.1,0.2,0.3,0.2,0.5c0,0.2-0.1,0.4-0.2,0.5
	C21.3,20.5,21.2,20.5,20.9,20.5z M19.4,25.7c-0.2,0.1-0.5,0.2-0.9,0.2c-1,0-1.5-0.5-1.5-1.5v-2h-0.7v-1h0.7v-1l1.4-0.4v1.4h1v1h-1
	v1.8c0,0.5,0.2,0.7,0.6,0.7c0.1,0,0.3,0,0.4-0.1V25.7z M15.6,25.7h-1.4V25h0c-0.3,0.5-0.8,0.8-1.4,0.8c-1,0-1.6-0.6-1.6-1.9v-2.7
	h1.4v2.6c0,0.6,0.3,0.9,0.8,0.9c0.3,0,0.4-0.1,0.6-0.3c0.2-0.2,0.2-0.4,0.2-0.7v-2.6h1.4V25.7z M8.9,23.9v-0.3l-0.8,0.1
	c-0.4,0.1-0.7,0.3-0.7,0.6c0,0.2,0.1,0.3,0.2,0.4c0.1,0.1,0.3,0.2,0.4,0.2c0.3,0,0.5-0.1,0.6-0.3C8.9,24.4,8.9,24.2,8.9,23.9z
	 M10.2,25.7H8.9v-0.6h0c-0.3,0.5-0.7,0.8-1.3,0.8c-0.4,0-0.8-0.1-1-0.4c-0.3-0.3-0.4-0.6-0.4-1c0-0.9,0.5-1.4,1.5-1.5l1.2-0.2
	c0-0.5-0.3-0.7-0.8-0.7c-0.5,0-1,0.2-1.5,0.5v-1c0.2-0.1,0.5-0.2,0.8-0.3c0.3-0.1,0.6-0.1,0.9-0.1c1.3,0,1.9,0.6,1.9,1.9V25.7z
	 M5.6,25.5c-0.5,0.2-1.1,0.3-1.8,0.3c-1,0-1.7-0.3-2.3-0.8c-0.6-0.6-0.8-1.3-0.8-2.3c0-1,0.3-1.8,0.9-2.4C2.2,19.7,3,19.4,4,19.4
	c0.6,0,1.1,0.1,1.5,0.2v1.4c-0.4-0.3-0.9-0.4-1.4-0.4c-0.6,0-1.1,0.2-1.4,0.6c-0.4,0.4-0.5,0.9-0.5,1.5c0,0.6,0.2,1.1,0.5,1.4
	c0.3,0.4,0.8,0.5,1.4,0.5c0.6,0,1.1-0.1,1.5-0.4V25.5z M31.2,25.7h-1.3v-0.6h0c-0.3,0.5-0.7,0.8-1.3,0.8c-0.4,0-0.8-0.1-1-0.4
	c-0.3-0.3-0.4-0.6-0.4-1c0-0.9,0.5-1.4,1.5-1.5l1.2-0.2c0-0.5-0.3-0.7-0.8-0.7s-1,0.2-1.5,0.5v-1c0.2-0.1,0.5-0.2,0.8-0.3
	c0.3-0.1,0.6-0.1,0.9-0.1c1.3,0,1.9,0.6,1.9,1.9V25.7z"/>
</svg>
