<?xml version="1.0" encoding="utf-8"?>
<!-- Generator: Adobe Illustrator 27.9.0, SVG Export Plug-In . SVG Version: 6.00 Build 0)  -->
<svg version="1.1" id="Layer_1" xmlns="http://www.w3.org/2000/svg" xmlns:xlink="http://www.w3.org/1999/xlink" x="0px" y="0px"
	 viewBox="0 0 1500 1500" style="enable-background:new 0 0 1500 1500;" xml:space="preserve">
	<style type="text/css">
		:root{}

		@keyframes tBlanco01Line{0%{stroke-dasharray:1900;}100%{stroke-dashoffset:0;}}
		@keyframes tBlanco02Line{0%{stroke-dasharray:1900;}100%{stroke-dashoffset:0;}}
		@keyframes tBlanco03Line{0%{stroke-dasharray:850;}100%{stroke-dashoffset:0;}}
		@keyframes flechaLinea{0%{stroke-dasharray:920;}100%{stroke-dashoffset:0;}}
		@keyframes cautivaRecuadro{0%{transform: translateX(-1500px)}100%{transform: translateX(0px)}}
		@keyframes agenciaRecuadro{0%{transform: translateX(1500px)}100%{transform: translateX(0px)}}
		.fondo{fill-rule:evenodd;clip-rule:evenodd;fill:#242424;visibility:visible;}
		.tBlanco01Line{fill:none;stroke:#666;stroke-width:30;stroke-dasharray:1900;stroke-dashoffset:1900;
			animation: tBlanco01Line 0.5s forwards linear 1.5s;}
		.tBlanco02Line{fill:none;stroke:#666;stroke-width:120;stroke-dasharray:1600;stroke-dashoffset:-1600;
			animation: tBlanco02Line 0.5s forwards linear 1.75s;}
		.tBlanco03Line{fill:none;stroke:#666;stroke-width:120;stroke-dasharray:850;stroke-dashoffset:850;
			animation: tBlanco03Line 0.5s forwards linear 1.5s;}
		.flechaLinea{fill:none;stroke:#666;stroke-width:200;stroke-dasharray:920;stroke-dashoffset:-920;
			animation: flechaLinea 0.5s forwards linear 2s;}
		.cautivaRecuadro{fill:#CA0102;transform: translateX(-1500px);
			animation: cautivaRecuadro 0.5s forwards linear 2s;}
		.agenciaRecuadro{fill:#CA0102;transform: translateX(1500px);
			animation: agenciaRecuadro 0.5s forwards linear 2s;}
	</style>
	
	<!-- <rect x="0" y="0" class="fondo" width="1500" height="1500"/> -->

	<defs>
		<clipPath id="tBlanco01Color">
			<path class="tBlanco01Color" d="M769.9,204c-259.6,0-470,210.4-470,470c0,66.2,13.7,129.2,38.4,186.3c4-1.1,7.9-2,11.9-2.9 c4.6-1,9.2-2,13.8-2.8c-24.6-55.2-38.3-116.3-38.3-180.6c0-245.3,198.8-444.1,444.1-444.1c68.9,0,134.2,15.7,192.4,43.7l19.4-19.3 C918.1,222.2,846.1,204,769.9,204 M1170.5,482c27.9,58.1,43.5,123.2,43.5,192c0,66.9-14.8,130.3-41.3,187.2c5.8-3.2,12.5-5,19.5-5 h11c23.6-56,36.6-117.6,36.6-182.2c0-76.1-18.1-147.9-50.1-211.4L1170.5,482z"/>
		</clipPath>
		<clipPath id="tBlanco02Color">
			<path class="tBlanco02Color" d="M920.8,439.1l31.9-32l-0.5-50c-53.6-30.9-115.8-48.6-182.2-48.6c-201.8,0-365.5,163.6-365.5,365.5 c0,67.9,18.5,131.5,50.8,186c16.5,6,30.4,15,41.5,26.8c4.2-17.5,20-30.5,38.7-30.5h23c-42.2-48.9-67.7-112.6-67.7-182.2 c0-154.1,125-279.1,279.1-279.1C825.5,394.9,877.3,411.2,920.8,439.1 M1037,491.5l-32,31.8c27.9,43.5,44.1,95.2,44.1,150.6 c0,36.1-6.9,70.6-19.3,102.2c0.6,0.5,1.2,1,1.8,1.5c15.4,13.7,23.4,32.4,23.4,52.9c0,8.9-1.5,17.5-4.4,25.5h36.3 c30.9-53.6,48.6-115.8,48.6-182.2c0-66.2-17.6-128.3-48.4-181.9L1037,491.5z"/>
		</clipPath>
		<clipPath id="tBlanco03Color">
			<path class="tBlanco03Color" d="M769.9,772.1c-54.2,0-98.1-43.9-98.1-98.1c0-44.5,29.7-82.2,70.4-94.1l22.7-95.4 C662.5,487.1,580.3,571,580.3,674c0,86.4,57.8,159.3,136.9,182.2h16.4c6.2,0,12.2,1.5,17.4,4c3.4-1.7,7-2.9,10.9-3.5v-5 c0-18,11.5-33.3,28.9-38.3l63.1-18.1c12.4-3.6,24.6-1.3,34.9,6.5c4.2,3.2,7.6,6.9,10.2,11c2.7-2.5,5.4-5.2,8-7.9 c3.9-10.4,10.4-19.7,19.1-27.5c1.8-1.6,3.6-3.1,5.5-4.4c16.9-27.5,27-59.6,27.9-94L864,701.8C852,742.4,814.5,772.1,769.9,772.1"/>
		</clipPath>
		<clipPath id="flechaColor">
			<polygon class="flechaColor" points="1017.1,442.6 1139.6,444.1 1227.8,355.2 1116.6,327.7 1089.1,216.5 1000.2,304.6 1001.6,427 839.1,590.1 813.4,491.2 769.9,674 952.8,630.7 853.9,604.9 "/>
		</clipPath>
		<clipPath id="cautivaTxt">
			<path class="cautivaTxt" 
				d="M1390.5,1017.8v-13.9l-37.3,4.9c-20.5,2.5-30.8,11.9-30.8,27.9c0,7,2.5,13.1,7.4,17.6c5.3,4.5,11.9,7,20.5,7 c11.9,0,21.3-4.1,29.1-12.3C1386.8,1040.8,1390.5,1030.2,1390.5,1017.8 M1258.3,896l-76.3,205.1h-72.2L1037.1,896h67.7l35.7,126.4 c4.1,14.4,6.2,26.3,7,36.5h0.8c0.8-9.4,3.3-21.3,7.4-35.3l36.5-127.6H1258.3z M1009.6,1101.1h-63.2V896h63.2V1101.1z M978.5,863.6 c-10.7,0-19.3-3.3-26.3-9.4c-6.6-6.6-10.3-14.4-10.3-23.4c0-9.4,3.7-17.2,10.3-23.4c7-6.2,15.6-9,26.3-9c11.1,0,19.7,2.9,26.3,9 c7,6.2,10.3,14,10.3,23.4c0,9.4-3.3,17.2-10.3,23.4C998.1,860.3,989.5,863.6,978.5,863.6z M910.8,1098.7 c-9.4,4.9-23.4,7.4-42.3,7.4c-44.3,0-66.9-23-66.9-69.3v-94h-33.2V896h33.2v-44.3l63.2-18.1V896h46v46.8h-46v82.9 c0,21.3,8.6,32,25.4,32c6.6,0,13.5-2.1,20.5-5.7V1098.7z M733.5,1101.1h-63.2V1070h-0.8c-15.6,24.2-36.5,36.1-62.8,36.1 c-47.6,0-71.4-28.7-71.4-86.2V896h63.2v118.2c0,29.1,11.5,43.5,34.5,43.5c11.5,0,20.5-4.1,27.1-11.9c7-7.8,10.3-18.9,10.3-32.4V896 h63.2V1101.1z M429.1,1017.8v-13.9l-37.3,4.9c-20.5,2.5-30.8,11.9-30.8,27.9c0,7,2.5,13.1,7.4,17.6c5.3,4.5,11.9,7,20.5,7 c11.9,0,21.3-4.1,29.1-12.3C425.4,1040.8,429.1,1030.2,429.1,1017.8z M488.6,1101.1h-59.9v-29.5h-0.8c-13.5,23-34.1,34.5-61.1,34.5 c-19.7,0-35.7-5.7-46.8-16.8c-11.5-11.5-17.2-26.3-17.2-45.1c0-39.8,23.4-62.8,70.6-68.9l55.8-7.4c0-22.6-12.3-33.6-36.5-33.6 c-24.2,0-47.6,7-69.7,21.7v-47.6c9-4.5,20.9-8.6,36.1-12.3c15.6-3.3,29.5-4.9,41.8-4.9c58.7,0,87.8,29.1,87.8,87.4V1101.1z M274,1090.9c-20.9,10.3-48.4,15.2-82.1,15.2c-43.9,0-78.8-12.7-103.8-39C62.7,1041.2,50,1006.8,50,963.7c0-46,14.4-83.3,42.7-112 C121,823.4,157.9,809,203,809c28.3,0,51.7,3.7,71,10.7V882c-19.3-11.5-41-17.2-65.6-17.2c-27.1,0-48.8,8.2-65.2,25.4 c-16.8,16.8-25,39.8-25,68.9c0,27.5,7.8,49.6,23.4,66.5c15.6,16.4,36.9,24.6,63.2,24.6c25.4,0,48.4-6.2,69.3-18.5V1090.9z M1450,1101.1h-59.9v-29.5h-0.8c-13.5,23-34.1,34.5-61.1,34.5c-19.7,0-35.7-5.7-46.8-16.8c-11.5-11.5-17.2-26.3-17.2-45.1 c0-39.8,23.4-62.8,70.6-68.9l55.8-7.4c0-22.6-12.3-33.6-36.5-33.6c-24.2,0-47.6,7-69.7,21.7v-47.6c9-4.5,20.9-8.6,36.1-12.3 c15.6-3.3,29.5-4.9,41.8-4.9c58.7,0,87.8,29.1,87.8,87.4V1101.1z"
			/>
		</clipPath>
		<clipPath id="agenciaTxt">
			<path class="agenciaTxt" 
				d="M1396.1,1226.3c0,9.8,1.9,17,5.8,21.6c4.1,4.5,8.9,6.8,14.9,6.8c6,0,10.8-2.3,14.9-6.8c3.9-4.5,6-11.5,6-21.3 c0-9.2-2-16.2-6.1-20.8c-4.2-4.7-9.2-7-14.9-7c-5.7,0-10.6,2.3-14.6,6.8C1398.2,1210.3,1396.1,1217.2,1396.1,1226.3 M1385.6,1271.6 l12.4,1.7c0.4,3.8,1.9,6.7,4.4,8.5c3.2,2.3,7.4,3.5,13,3.5c6,0,10.5-1.2,13.8-3.5c3.2-2.3,5.4-5.7,6.6-9.9 c0.6-2.6,0.9-8.2,0.9-16.5c-5.7,6.6-12.5,9.9-21,9.9c-10.3,0-18.4-3.8-24-11.2c-5.8-7.6-8.6-16.5-8.6-26.9c0-7.3,1.3-13.8,3.9-20 c2.6-6.1,6.4-10.8,11.4-14.1c5-3.4,10.8-5,17.5-5c8.9,0,16.2,3.6,22,10.9v-9.3h11.8v65.3c0,11.8-1.2,20.1-3.6,25.1 c-2.3,5-6.1,8.7-11.4,11.7c-5.1,2.8-11.5,4.2-19.1,4.2c-9,0-16.3-2-21.9-6.1C1388.1,1285.9,1385.5,1279.8,1385.6,1271.6z M1307,1265.4v-75.6h11.5v10.8c5.5-8.3,13.5-12.4,24-12.4c4.5,0,8.7,0.9,12.5,2.5c3.8,1.6,6.7,3.8,8.6,6.4c1.9,2.6,3.2,5.8,3.9,9.5 c0.4,2.3,0.7,6.6,0.7,12.4v46.5h-12.8v-45.9c0-5.2-0.4-9.2-1.5-11.8c-1-2.5-2.8-4.7-5.2-6.1c-2.6-1.6-5.5-2.3-9-2.3 c-5.4,0-10.1,1.7-14,5.2c-3.9,3.3-6,9.9-6,19.7v41.2H1307z M1274.6,1265.4v-75.6h12.8v75.6H1274.6z M1274.6,1175.6v-14.6h12.8v14.6 H1274.6z M1262,1253.9l1.7,11.4c-3.6,0.7-6.8,1.2-9.6,1.2c-4.7,0-8.3-0.7-10.8-2.2c-2.6-1.5-4.4-3.5-5.4-5.8 c-1-2.5-1.6-7.4-1.6-15.2v-43.6h-9.5v-9.9h9.5v-18.6l12.8-7.7v26.4h12.8v9.9h-12.8v44.3c0,3.6,0.3,6,0.7,7c0.4,1.2,1.2,1.9,2.2,2.6 c1,0.6,2.5,0.9,4.4,0.9C1257.7,1254.5,1259.6,1254.3,1262,1253.9 M1162.7,1220.4h42.1c-0.6-6.4-2.2-11.1-4.8-14.3 c-4.1-5-9.3-7.4-15.9-7.4c-5.8,0-10.8,1.9-14.7,5.8C1165.4,1208.4,1163.2,1213.8,1162.7,1220.4 M1204.7,1240.9l13.3,1.7 c-2,7.7-6,13.7-11.5,17.9c-5.7,4.2-12.8,6.4-21.6,6.4c-11.1,0-19.8-3.4-26.2-10.2c-6.6-6.8-9.8-16.3-9.8-28.6 c0-12.7,3.2-22.6,9.8-29.6c6.6-7,15-10.5,25.5-10.5c10.1,0,18.2,3.3,24.6,10.3c6.4,6.8,9.6,16.5,9.6,29c0,0.7,0,1.9,0,3.4H1162 c0.4,8.3,2.8,14.6,7,19.1c4.2,4.4,9.5,6.6,15.9,6.6c4.7,0,8.6-1.3,11.9-3.8C1200.2,1250.2,1202.8,1246.3,1204.7,1240.9z M1080.3,1265.4v-104.3h12.8v59.4l30.3-30.7h16.6l-28.8,28.1l31.8,47.5h-15.7l-25.2-38.6l-8.9,8.6v30H1080.3z M1031.6,1265.4v-75.6 h11.5v11.5c2.9-5.2,5.7-8.9,8.2-10.5c2.5-1.7,5.2-2.6,8.3-2.6c4.2,0,8.6,1.3,13.1,4.1l-4.5,11.8c-3.2-1.7-6.3-2.6-9.3-2.6 c-2.8,0-5.4,0.9-7.6,2.5c-2.2,1.7-3.8,4.1-4.7,7c-1.5,4.5-2.2,9.6-2.2,15v39.5H1031.6z M999.2,1227.5c-4.7,1.9-11.7,3.5-21,4.8 c-5.2,0.7-9,1.6-11.2,2.5c-2.2,1-3.8,2.3-5.1,4.2c-1.2,1.7-1.7,3.8-1.7,6c0,3.5,1.3,6.3,3.9,8.6c2.6,2.2,6.4,3.4,11.4,3.4 c5,0,9.3-1,13.1-3.2c3.9-2.2,6.7-5.1,8.4-8.9c1.5-2.8,2.2-7.1,2.2-12.7V1227.5z M1000.2,1255.9c-4.8,4.1-9.3,6.8-13.7,8.6 c-4.4,1.6-9.2,2.5-14.1,2.5c-8.3,0-14.7-2-19.2-6.1c-4.5-3.9-6.7-9.2-6.7-15.4c0-3.6,0.9-7.1,2.5-10.2c1.7-3.1,3.9-5.4,6.7-7.3 c2.8-1.9,5.8-3.2,9.2-4.2c2.6-0.6,6.4-1.3,11.5-1.9c10.3-1.2,17.9-2.6,22.9-4.4c0-1.7,0-2.9,0-3.3c0-5.2-1.2-8.9-3.6-10.9 c-3.2-2.9-8.2-4.4-14.6-4.4c-6.1,0-10.5,1-13.4,3.2c-2.9,2-5,5.8-6.4,11.2l-12.5-1.7c1.2-5.4,3.1-9.8,5.7-13 c2.6-3.4,6.4-5.8,11.4-7.7c5-1.7,10.6-2.6,17.2-2.6c6.4,0,11.7,0.7,15.7,2.3c4.1,1.5,7,3.4,8.9,5.7c1.9,2.3,3.2,5.2,4.1,8.7 c0.4,2.2,0.6,6.1,0.6,11.8v16.9c0,11.9,0.3,19.4,0.9,22.6c0.4,3.2,1.5,6.3,3.1,9.2h-13.4 C1001.3,1262.6,1000.6,1259.6,1000.2,1255.9z M830.8,1265.4v-104.3h20.7l24.6,73.9c2.3,6.8,3.9,11.9,5.1,15.4 c1.2-3.8,3.1-9.5,5.5-16.8l25.1-72.5h18.5v104.3H917v-87.3l-30.4,87.3h-12.4l-30.2-88.9v88.9H830.8z M717.6,1220.4h42.1 c-0.6-6.4-2.2-11.1-4.8-14.3c-4.1-5-9.3-7.4-15.9-7.4c-5.8,0-10.8,1.9-14.7,5.8C720.2,1208.4,718,1213.8,717.6,1220.4 M759.5,1240.9l13.3,1.7c-2,7.7-6,13.7-11.5,17.9c-5.7,4.2-12.8,6.4-21.6,6.4c-11.1,0-19.8-3.4-26.2-10.2 c-6.6-6.8-9.8-16.3-9.8-28.6c0-12.7,3.2-22.6,9.8-29.6c6.6-7,15-10.5,25.5-10.5c10.1,0,18.2,3.3,24.6,10.3c6.4,6.8,9.6,16.5,9.6,29 c0,0.7,0,1.9,0,3.4h-56.4c0.4,8.3,2.8,14.6,7,19.1c4.2,4.4,9.5,6.6,15.9,6.6c4.7,0,8.6-1.3,11.9-3.8 C755,1250.2,757.6,1246.3,759.5,1240.9z M635.3,1227.7c0,9.6,2,16.9,6.1,21.7c4.1,4.8,8.9,7.1,14.6,7.1c5.5,0,10.3-2.3,14.3-6.8 c3.9-4.5,5.8-11.5,5.8-21c0-10.2-2-17.8-6-22.6c-3.9-5-8.9-7.3-14.7-7.3s-10.5,2.3-14.4,7C637.2,1210.3,635.3,1217.7,635.3,1227.7 M675.8,1265.4v-9.6c-4.8,7.4-11.8,11.2-21.1,11.2c-6,0-11.5-1.6-16.6-5c-5-3.4-8.9-8-11.7-13.8c-2.8-6-4.2-12.8-4.2-20.5 c0-7.6,1.3-14.4,3.8-20.5c2.5-6.1,6.3-10.8,11.4-14c5-3.4,10.6-5,16.8-5c4.5,0,8.6,1,12.2,2.9c3.5,1.9,6.4,4.4,8.6,7.4v-37.4h12.8 v104.3H675.8z M553.8,1227.5c-4.7,1.9-11.7,3.5-21,4.8c-5.2,0.7-9,1.6-11.2,2.5c-2.2,1-3.8,2.3-5.1,4.2c-1.2,1.7-1.7,3.8-1.7,6 c0,3.5,1.3,6.3,3.9,8.6c2.6,2.2,6.4,3.4,11.4,3.4c5,0,9.3-1,13.1-3.2c3.9-2.2,6.7-5.1,8.4-8.9c1.5-2.8,2.2-7.1,2.2-12.7V1227.5z M554.8,1255.9c-4.8,4.1-9.3,6.8-13.7,8.6c-4.4,1.6-9.2,2.5-14.1,2.5c-8.3,0-14.7-2-19.2-6.1c-4.5-3.9-6.7-9.2-6.7-15.4 c0-3.6,0.9-7.1,2.5-10.2c1.7-3.1,3.9-5.4,6.7-7.3c2.8-1.9,5.8-3.2,9.2-4.2c2.6-0.6,6.4-1.3,11.5-1.9c10.3-1.2,17.9-2.6,22.9-4.4 c0-1.7,0-2.9,0-3.3c0-5.2-1.2-8.9-3.6-10.9c-3.2-2.9-8.2-4.4-14.6-4.4c-6.1,0-10.5,1-13.4,3.2c-2.9,2-5,5.8-6.4,11.2l-12.5-1.7 c1.2-5.4,3.1-9.8,5.7-13c2.6-3.4,6.4-5.8,11.4-7.7c5-1.7,10.6-2.6,17.2-2.6c6.4,0,11.7,0.7,15.7,2.3c4.1,1.5,7,3.4,8.9,5.7 c1.9,2.3,3.2,5.2,4.1,8.7c0.4,2.2,0.6,6.1,0.6,11.8v16.9c0,11.9,0.3,19.4,0.9,22.6c0.4,3.2,1.5,6.3,3.1,9.2h-13.4 C556,1262.6,555.3,1259.6,554.8,1255.9z M473.1,1265.4v-75.6h12.8v75.6H473.1z M473.1,1175.6v-14.6h12.8v14.6H473.1z M449.7,1237.7 l12.5,1.7c-1.3,8.6-4.8,15.3-10.5,20.2c-5.7,4.8-12.7,7.3-20.8,7.3c-10.3,0-18.6-3.4-24.9-10.2c-6.3-6.7-9.5-16.3-9.5-29 c0-8.2,1.3-15.2,4.1-21.3c2.6-6.1,6.8-10.8,12.4-13.8c5.4-3.1,11.5-4.5,17.9-4.5c8.2,0,15,2,20.1,6.3c5.2,4.1,8.6,10.1,10.1,17.6 l-12.4,1.9c-1.2-5.1-3.2-8.9-6.3-11.5c-3.1-2.5-6.7-3.8-10.9-3.8c-6.6,0-11.8,2.3-15.7,6.8c-4.1,4.7-6.1,11.9-6.1,22 c0,10.2,1.9,17.5,5.8,22.1c3.9,4.5,9,6.8,15.3,6.8c5,0,9.2-1.6,12.5-4.7C446.6,1248.8,448.8,1244.1,449.7,1237.7 M319.3,1265.4 v-75.6h11.5v10.8c5.5-8.3,13.5-12.4,24-12.4c4.5,0,8.7,0.9,12.5,2.5c3.8,1.6,6.7,3.8,8.6,6.4c1.9,2.6,3.2,5.8,3.9,9.5 c0.4,2.3,0.7,6.6,0.7,12.4v46.5h-12.8v-45.9c0-5.2-0.4-9.2-1.5-11.8c-1-2.5-2.8-4.7-5.2-6.1c-2.6-1.6-5.5-2.3-9-2.3 c-5.4,0-10.1,1.7-14,5.2c-3.9,3.3-6,9.9-6,19.7v41.2H319.3z M247.9,1220.4H290c-0.6-6.4-2.2-11.1-4.8-14.3c-4.1-5-9.3-7.4-15.9-7.4 c-5.8,0-10.8,1.9-14.7,5.8C250.5,1208.4,248.3,1213.8,247.9,1220.4 M289.9,1240.9l13.3,1.7c-2,7.7-6,13.7-11.5,17.9 c-5.7,4.2-12.8,6.4-21.6,6.4c-11.1,0-19.8-3.4-26.2-10.2c-6.6-6.8-9.8-16.3-9.8-28.6c0-12.7,3.2-22.6,9.8-29.6 c6.6-7,15-10.5,25.5-10.5c10.1,0,18.2,3.3,24.6,10.3c6.4,6.8,9.6,16.5,9.6,29c0,0.7,0,1.9,0,3.4h-56.4c0.4,8.3,2.8,14.6,7,19.1 c4.2,4.4,9.5,6.6,15.9,6.6c4.7,0,8.6-1.3,11.9-3.8C285.3,1250.2,288,1246.3,289.9,1240.9z M165.5,1226.3c0,9.8,1.9,17,5.8,21.6 c4.1,4.5,8.9,6.8,14.9,6.8c6,0,10.8-2.3,14.9-6.8c3.9-4.5,6-11.5,6-21.3c0-9.2-2-16.2-6.1-20.8c-4.2-4.7-9.2-7-14.9-7 c-5.7,0-10.6,2.3-14.6,6.8C167.5,1210.3,165.5,1217.2,165.5,1226.3 M155,1271.6l12.4,1.7c0.4,3.8,1.9,6.7,4.4,8.5 c3.2,2.3,7.4,3.5,13,3.5c6,0,10.5-1.2,13.8-3.5c3.2-2.3,5.4-5.7,6.6-9.9c0.6-2.6,0.9-8.2,0.9-16.5c-5.7,6.6-12.5,9.9-21,9.9 c-10.3,0-18.4-3.8-24-11.2c-5.8-7.6-8.6-16.5-8.6-26.9c0-7.3,1.3-13.8,3.9-20c2.6-6.1,6.4-10.8,11.4-14.1c5-3.4,10.8-5,17.5-5 c8.9,0,16.2,3.6,22,10.9v-9.3h11.8v65.3c0,11.8-1.2,20.1-3.6,25.1c-2.3,5-6.1,8.7-11.4,11.7c-5.1,2.8-11.5,4.2-19.1,4.2 c-9,0-16.3-2-21.9-6.1C157.4,1285.9,154.8,1279.8,155,1271.6z M80.4,1222.6h35.5l-10.9-29c-3.4-8.7-5.8-16-7.4-21.7 c-1.5,6.8-3.3,13.4-5.8,20.1L80.4,1222.6z M50.2,1265.4l40.1-104.3h15.2l42.5,104.3h-15.7l-12.1-31.6H76.3l-11.4,31.6H50.2z"
			/>
		</clipPath>
	</defs>
			
	<g clip-path="url(#tBlanco01Color)">
		<path class="tBlanco01Line" d="M1172.4,891.2c34.9-64.6,54.7-138.5,54.7-217.1c0-252.5-204.7-457.2-457.2-457.2 c-252.5,0-457.2,204.7-457.2,457.2c0,77.6,19.3,150.7,53.5,214.7"/>
	</g>
	<g clip-path="url(#tBlanco02Color)">
		<path class="tBlanco02Line" d="M983.8,916.4c67.3-59.3,109.7-146.1,109.7-242.8c0-178.7-144.9-323.6-323.6-323.6 c-178.7,0-323.6,144.9-323.6,323.6c0,108.2,53.1,204,134.7,262.7"/>
	</g>
	<g clip-path="url(#tBlanco03Color)">
		<path class="tBlanco03Line" d="M838.9,540.2c-20.7-10.7-44.1-16.7-69-16.7c-83.1,0-150.4,67.4-150.4,150.4s67.4,150.4,150.4,150.4 S920.3,757.1,920.3,674c0-25.1-6.2-48.8-17-69.6"/>
	</g>
	<g clip-path="url(#flechaColor)">
		<line class="flechaLinea" x1="663.5" y1="780.4" x2="1310.6" y2="132.5"/>
	</g>
	<g  clip-path="url(#cautivaTxt)">
		<rect x="23" y="796" class="cautivaRecuadro" width="1455" height="313"/>
	</g>
	<g  clip-path="url(#agenciaTxt)">
		<rect x="23" y="1138" class="agenciaRecuadro" width="1455" height="182"/>
	</g>
</svg>
